<svg xmlns="http://www.w3.org/2000/svg" viewBox="0 0 64 64" role="img" aria-label="SuisuiGallery">
  <rect width="64" height="64" rx="14" fill="#050607"/>
  <path d="M14 18h36M14 46h36M18 14v36M46 14v36" fill="none" stroke="#bd8c3a" stroke-width="2.4" stroke-linecap="round" opacity=".72"/>
  <path d="M24 24c0-3.1 2.7-5.2 7-5.2 3 0 5.5.9 7.5 2.5l-2.1 3.7c-1.7-1.2-3.6-1.9-5.6-1.9-2 0-3.1.7-3.1 1.9 0 3.4 15.1 1.4 15.1 10.2 0 3.4-2.9 5.9-7.8 5.9-3.8 0-7.1-1.2-9.4-3.2l2.2-3.7c2 1.6 4.5 2.6 7 2.6 2.2 0 3.5-.8 3.5-2.1C38.3 31.1 24 33.1 24 24Z" fill="#fffdfa"/>
  <path d="M42 20h5v21h-5z" fill="#bd8c3a"/>
</svg>
